<svg xmlns="http://www.w3.org/2000/svg" viewBox="0 0 228 64" width="228" height="64">
  <defs>
    <linearGradient id="mark" x1="3" y1="3" x2="37" y2="37" gradientUnits="userSpaceOnUse">
      <stop offset="0" stop-color="#60a5fa"/>
      <stop offset="1" stop-color="#2563eb"/>
    </linearGradient>
  </defs>
  <g transform="translate(0, 12)">
    <path
      fill-rule="evenodd"
      clip-rule="evenodd"
      d="M20 3C10.6112 3 3 10.6112 3 20C3 29.3888 10.6112 37 20 37C29.3888 37 37 29.3888 37 20C37 10.6112 29.3888 3 20 3ZM20 12C15.5817 12 12 15.5817 12 20C12 24.4183 15.5817 28 20 28C24.4183 28 28 24.4183 28 20C28 15.5817 24.4183 12 20 12Z"
      fill="url(#mark)"
    />
    <path d="M22 22L38 22L38 38L22 38Z" fill="url(#mark)"/>
  </g>
  <text x="50" y="42" font-family="Segoe UI, Arial, Helvetica, sans-serif" font-size="34" font-weight="800" letter-spacing="0.3">
    <tspan fill="#60a5fa">QA</tspan><tspan fill="#f8fafc">lchemy</tspan>
  </text>
</svg>
