<svg xmlns="http://www.w3.org/2000/svg" viewBox="0 0 512 512" width="512" height="512">
  <defs>
    <linearGradient id="mark" x1="3" y1="3" x2="37" y2="37" gradientUnits="userSpaceOnUse">
      <stop offset="0" stop-color="#60a5fa"/>
      <stop offset="1" stop-color="#2563eb"/>
    </linearGradient>
  </defs>

  <!-- Background: rounded square (iOS/Android-safe app icon shape), single flat color -->
  <rect x="0" y="0" width="512" height="512" rx="112" fill="#05070d"/>

  <!-- QAlchemy mark, centered with safe-zone padding -->
  <g transform="translate(96, 96) scale(8)">
    <path
      fill-rule="evenodd"
      clip-rule="evenodd"
      d="M20 3C10.6112 3 3 10.6112 3 20C3 29.3888 10.6112 37 20 37C29.3888 37 37 29.3888 37 20C37 10.6112 29.3888 3 20 3ZM20 12C15.5817 12 12 15.5817 12 20C12 24.4183 15.5817 28 20 28C24.4183 28 28 24.4183 28 20C28 15.5817 24.4183 12 20 12Z"
      fill="url(#mark)"
    />
    <path d="M22 22L38 22L38 38L22 38Z" fill="url(#mark)"/>
  </g>
</svg>
